<?xml version="1.0" encoding="utf-8"?>
<!DOCTYPE svg PUBLIC "-//W3C//DTD SVG 1.0//EN" "http://www.w3.org/TR/2001/REC-SVG-20010904/DTD/svg10.dtd">
<svg version="1.0" xmlns="http://www.w3.org/2000/svg" width="42px" height="42px" viewBox="0 0 42 42" preserveAspectRatio="xMidYMid meet">
 <g fill="#fd8a02">
  <path d="M15.71 35.76 c-0.71 -1.55 -1.56 -3.40 -1.56 -3.43 0 -0.02 0.07 -0.06 0.16 -0.10 0.75 -0.35 0.85 -0.41 0.85 -0.49 0 -0.07 0.08 -0.12 0.44 -0.27 0.24 -0.10 0.44 -0.21 0.44 -0.23 0 -0.02 -0.16 -0.37 -0.34 -0.78 -0.83 -1.78 -1.21 -2.64 -1.21 -2.69 0 -0.03 0.06 -0.09 0.13 -0.11 0.21 -0.09 0.67 -0.30 0.68 -0.32 0.01 -0 -0 -0.05 -0.03 -0.09 -0.03 -0.07 -0.03 -0.09 0.01 -0.09 0.05 0 0.84 -0.35 0.89 -0.39 0.01 -0.01 -0.06 -0.18 -0.15 -0.37 -0.16 -0.36 -0.30 -0.66 -1.01 -2.21 -0.20 -0.43 -0.37 -0.80 -0.39 -0.82 -0.10 -0.10 -0.03 -0.15 0.65 -0.46 0.18 -0.08 0.21 -0.11 0.18 -0.17 -0.03 -0.06 0.03 -0.10 0.42 -0.28 0.30 -0.14 0.45 -0.23 0.44 -0.27 -0.01 -0.03 -0.30 -0.68 -0.65 -1.45 -0.35 -0.77 -0.69 -1.52 -0.76 -1.67 -0.14 -0.33 -0.16 -0.32 0.35 -0.53 0.25 -0.11 0.32 -0.15 0.30 -0.21 -0.02 -0.09 0.03 -0.12 0.52 -0.34 0.20 -0.09 0.36 -0.17 0.36 -0.18 0 -0.02 -0.21 -0.48 -0.46 -1.03 -0.25 -0.55 -0.59 -1.29 -0.74 -1.64 -0.16 -0.35 -0.30 -0.65 -0.32 -0.68 -0.10 -0.10 -0.02 -0.17 0.39 -0.37 0.35 -0.17 0.43 -0.22 0.41 -0.28 -0.02 -0.07 0.06 -0.11 0.42 -0.28 0.24 -0.11 0.45 -0.22 0.46 -0.23 0.01 -0 -0.05 -0.16 -0.13 -0.33 -0.08 -0.17 -0.41 -0.90 -0.73 -1.61 -0.32 -0.71 -0.61 -1.31 -0.64 -1.34 -0.09 -0.07 -0.07 -0.11 0.10 -0.19 0.08 -0.04 0.39 -0.18 0.68 -0.31 1.54 -0.70 1.66 -0.75 1.81 -0.74 l0.15 0.01 0.72 1.54 c0.39 0.84 0.74 1.61 0.78 1.69 0.04 0.08 0.08 0.15 0.10 0.15 0.02 0 0.37 -0.15 0.78 -0.33 0.41 -0.18 0.79 -0.34 0.85 -0.35 0.10 -0.02 0.12 0.01 0.64 1.14 0.53 1.16 1.08 2.34 1.11 2.36 0.01 0.01 0.61 -0.24 1.29 -0.55 0.17 -0.08 0.35 -0.14 0.40 -0.14 0.11 0 0.14 0.05 1.15 2.26 0.30 0.66 0.57 1.23 0.59 1.25 0.02 0.02 0.14 -0.01 0.29 -0.07 1.02 -0.45 1.48 -0.64 1.52 -0.63 0.02 0.01 0.42 0.82 0.88 1.80 0.46 0.98 0.85 1.79 0.88 1.80 0.02 0.01 0.15 -0.03 0.28 -0.09 0.57 -0.27 1.44 -0.64 1.48 -0.64 0.02 0 0.11 0.14 0.19 0.32 0.95 2.06 1.52 3.25 1.57 3.25 0.02 0 0.30 -0.11 0.63 -0.26 0.87 -0.38 1.05 -0.45 1.11 -0.43 0.05 0.02 0.17 0.27 1.08 2.21 1.07 2.28 1.05 2.23 1 2.34 -0.04 0.09 -0.30 0.22 -1.73 0.85 -1.41 0.63 -1.71 0.75 -1.85 0.74 l-0.16 -0.01 -0.43 -0.94 c-0.23 -0.52 -0.44 -0.96 -0.46 -0.98 -0.03 -0.03 -0.61 0.22 -2.68 1.16 -0.46 0.21 -0.70 0.29 -0.82 0.29 l-0.16 0 -0.15 -0.32 c-0.41 -0.90 -0.73 -1.58 -0.75 -1.59 -0.02 -0.01 -0.23 0.07 -0.47 0.18 -0.25 0.11 -0.93 0.42 -1.51 0.68 -0.59 0.27 -1.36 0.62 -1.72 0.78 -0.36 0.16 -1.02 0.46 -1.46 0.66 -0.44 0.20 -0.82 0.38 -0.84 0.40 -0.05 0.05 0.43 1.02 0.50 1.02 0.08 0 0.07 0.05 -0.03 0.11 -0.05 0.03 -0.08 0.07 -0.08 0.10 0 0.03 0.09 0.25 0.21 0.48 0.23 0.48 0.23 0.57 0.02 0.68 -0.17 0.09 -2.20 1.02 -2.87 1.32 l-0.52 0.23 0.17 0.35 c0.09 0.19 0.19 0.36 0.21 0.37 0.02 0 0 0.05 -0.04 0.09 -0.07 0.07 -0.06 0.10 0.12 0.50 0.16 0.34 0.18 0.45 0.16 0.52 -0.03 0.08 -0.28 0.21 -1.28 0.66 -0.68 0.31 -1.43 0.65 -1.66 0.75 -0.24 0.11 -0.47 0.18 -0.56 0.18 l-0.15 0 -0.42 -0.91z"/>
 </g>
 <g fill="#e97301">
  <path d="M15.59 37.87 c-0.02 -0.04 -0.27 -0.59 -0.57 -1.24 -0.30 -0.64 -0.81 -1.77 -1.15 -2.50 -0.46 -1.01 -0.60 -1.35 -0.57 -1.39 0.06 -0.08 0.84 -0.46 0.93 -0.46 0.05 0 0.12 0.11 0.26 0.42 0.10 0.23 0.54 1.19 0.98 2.13 0.71 1.53 0.80 1.71 0.87 1.69 0.07 -0.02 1.29 -0.57 2.88 -1.29 0.29 -0.14 0.55 -0.24 0.56 -0.24 0.03 0 -0.29 1.14 -0.34 1.22 -0.02 0.03 -0.13 0.10 -0.25 0.15 -0.12 0.05 -0.34 0.16 -0.49 0.23 -0.15 0.07 -0.30 0.13 -0.33 0.13 -0.03 0 -0.12 0.05 -0.20 0.10 -0.08 0.06 -0.17 0.10 -0.19 0.10 -0.02 0 -0.16 0.07 -0.32 0.14 -0.15 0.08 -0.29 0.14 -0.32 0.14 -0.02 0 -0.20 0.07 -0.38 0.16 -0.19 0.09 -0.36 0.16 -0.38 0.16 -0.04 0 -0.43 0.18 -0.64 0.30 -0.18 0.10 -0.31 0.11 -0.35 0.04z"/>
  <path d="M19.17 33.65 c-0.11 -0.24 -0.21 -0.45 -0.22 -0.46 -0 -0.02 0.26 -0.15 0.59 -0.30 0.83 -0.37 2.64 -1.20 2.84 -1.30 0.34 -0.17 0.34 -0.16 0.14 0.52 -0.19 0.65 -0.25 0.74 -0.55 0.83 -0.08 0.03 -0.26 0.11 -0.41 0.18 -0.14 0.08 -0.29 0.14 -0.32 0.14 -0.03 0 -0.11 0.02 -0.16 0.06 -0.30 0.16 -0.63 0.31 -0.69 0.31 -0.04 0 -0.23 0.09 -0.44 0.19 -0.48 0.24 -0.51 0.26 -0.55 0.26 -0.02 -0 -0.12 -0.20 -0.24 -0.43z"/>
  <path d="M15.17 31.73 c-0.16 -0.31 -1.62 -3.54 -1.61 -3.56 0.03 -0.05 0.97 -0.49 1.01 -0.48 0.02 0.01 0.24 0.46 0.49 1 0.25 0.54 0.62 1.34 0.82 1.77 0.20 0.43 0.37 0.81 0.38 0.84 0.01 0.03 -0.16 0.12 -0.40 0.23 -0.23 0.09 -0.46 0.21 -0.52 0.24 -0.11 0.06 -0.12 0.06 -0.16 -0.03z"/>
  <path d="M22.09 30.12 c-0.09 -0.18 -0.22 -0.45 -0.29 -0.61 l-0.14 -0.29 0.64 -0.29 c1.12 -0.51 2.42 -1.09 3.51 -1.59 0.59 -0.26 1.31 -0.59 1.60 -0.72 0.30 -0.13 0.55 -0.24 0.57 -0.24 0.04 0 0.22 0.38 0.80 1.65 0.09 0.20 0.18 0.36 0.21 0.36 0.04 0 0.46 -0.18 2.59 -1.14 0.51 -0.23 0.94 -0.42 0.96 -0.43 0.02 -0 0.24 0.45 0.50 1.02 0.25 0.56 0.48 1.03 0.50 1.03 0.02 0.01 0.81 -0.33 1.76 -0.75 1.57 -0.70 1.83 -0.80 1.83 -0.74 0 0.01 -0.10 0.27 -0.23 0.57 -0.22 0.52 -0.36 0.72 -0.50 0.73 -0.08 0 -0.46 0.16 -0.59 0.25 -0.06 0.04 -0.16 0.09 -0.23 0.10 -0.07 0.02 -0.26 0.10 -0.43 0.18 -0.17 0.09 -0.33 0.16 -0.36 0.16 -0.03 0 -0.19 0.07 -0.37 0.16 -0.18 0.09 -0.33 0.16 -0.35 0.16 -0.03 0 -0.37 0.14 -0.88 0.37 -0.10 0.05 -0.19 0.07 -0.20 0.06 -0.01 -0.01 -0.21 -0.43 -0.45 -0.94 -0.27 -0.59 -0.44 -0.92 -0.49 -0.93 -0.04 -0.01 -0.17 0.03 -0.29 0.09 -0.12 0.06 -0.25 0.11 -0.27 0.11 -0.02 0 -0.23 0.09 -0.46 0.20 -0.89 0.44 -1.37 0.66 -1.41 0.66 -0.05 0 -0.47 0.19 -0.89 0.40 -0.07 0.03 -0.16 0.05 -0.20 0.05 -0.05 -0.01 -0.21 -0.32 -0.44 -0.84 -0.32 -0.72 -0.39 -0.83 -0.47 -0.83 -0.05 0 -0.23 0.06 -0.39 0.14 -0.16 0.08 -0.35 0.16 -0.42 0.17 -0.07 0.02 -0.41 0.18 -0.77 0.35 -0.36 0.18 -0.67 0.32 -0.71 0.32 -0.03 0 -0.39 0.16 -0.78 0.35 -0.40 0.19 -0.73 0.35 -0.75 0.35 -0.05 0 -0.30 0.13 -0.37 0.18 -0.03 0.02 -0.16 0.08 -0.29 0.12 -0.13 0.04 -0.29 0.11 -0.37 0.16 -0.14 0.09 -0.39 0.20 -0.47 0.20 -0.02 0 -0.11 -0.14 -0.20 -0.32z"/>
  <path d="M15.32 27.28 c-0.05 -0.02 -1.66 -3.53 -1.66 -3.59 0 -0.01 0.23 -0.14 0.50 -0.27 0.40 -0.20 0.51 -0.23 0.55 -0.19 0.02 0.03 0.21 0.41 0.41 0.83 0.20 0.43 0.46 0.99 0.57 1.25 0.78 1.67 0.72 1.53 0.62 1.58 -0.05 0.02 -0.28 0.13 -0.51 0.24 -0.23 0.11 -0.43 0.20 -0.43 0.20 -0 0 -0.02 -0.02 -0.05 -0.03z"/>
  <path d="M15.36 22.59 c-0.12 -0.28 -1.17 -2.57 -1.38 -3.01 -0.11 -0.25 -0.14 -0.35 -0.11 -0.37 0.07 -0.05 0.85 -0.44 0.95 -0.48 0.07 -0.02 0.09 0.01 0.16 0.17 0.05 0.11 0.41 0.91 0.81 1.79 0.40 0.88 0.73 1.60 0.73 1.62 0 0.02 -0.36 0.19 -0.95 0.45 -0.12 0.05 -0.12 0.05 -0.21 -0.16z"/>
  <path d="M15.55 18.35 c-0.02 -0.04 -0.27 -0.59 -0.56 -1.22 -0.29 -0.63 -0.65 -1.42 -0.80 -1.76 -0.32 -0.70 -0.36 -0.59 0.30 -0.91 0.31 -0.16 0.41 -0.19 0.47 -0.16 0.04 0.02 0.22 0.37 0.40 0.78 0.18 0.40 0.54 1.19 0.79 1.74 0.25 0.55 0.46 1.03 0.46 1.05 0 0.02 -0.20 0.13 -0.44 0.24 -0.24 0.11 -0.47 0.23 -0.51 0.26 -0.06 0.05 -0.07 0.05 -0.11 -0.02z"/>
  <path d="M15.70 13.80 c-0.12 -0.22 -1.55 -3.40 -1.54 -3.44 0 -0.06 0.91 -0.49 1 -0.47 0.05 0.01 0.14 0.15 0.24 0.39 0.09 0.21 0.44 0.97 0.77 1.70 0.34 0.73 0.61 1.35 0.61 1.37 0 0.02 -0.23 0.15 -0.52 0.29 -0.50 0.24 -0.52 0.25 -0.56 0.16z"/>
 </g>
</svg>