<?xml version="1.0" encoding="utf-8"?>
<!DOCTYPE svg PUBLIC "-//W3C//DTD SVG 1.0//EN" "http://www.w3.org/TR/2001/REC-SVG-20010904/DTD/svg10.dtd">
<svg version="1.0" xmlns="http://www.w3.org/2000/svg" width="420px" height="420px" viewBox="0 0 420 420" preserveAspectRatio="xMidYMid meet">
 <g fill="#f88d10">
  <path d="M84.6 418.4 c-12.3 -1.6 -21.8 -4.5 -31.6 -9.4 -22.8 -11.5 -40.4 -32.2 -47.9 -56.4 -4.9 -15.9 -5.1 -21.6 -5.1 -142.6 0 -121 0.2 -126.7 5.1 -142.6 9 -29.2 33.1 -53.3 62.3 -62.3 15.9 -4.9 21.6 -5.1 142.6 -5.1 121 0 126.7 0.2 142.6 5.1 29.2 9 53.3 33.1 62.3 62.3 4.9 15.9 5.1 21.6 5.1 142.6 0 121 -0.2 126.7 -5.1 142.6 -9 29.2 -33.1 53.3 -62.3 62.3 -15.9 4.9 -21.4 5.1 -143.9 5 -89.8 -0.1 -116.3 -0.4 -124.1 -1.5z m78.6 -90.5 c5.1 -2.2 11.4 -5 13.9 -6.1 3.7 -1.6 4.8 -2.6 5.7 -5.5 0.9 -2.8 0.8 -4.2 -0.3 -6.4 -0.8 -1.5 -1.5 -4.3 -1.5 -6.2 0 -3.3 0.2 -3.5 8.8 -7.1 15.9 -6.7 17.4 -7.7 18.9 -12.1 1 -2.9 1.1 -4.6 0.3 -6.3 -0.5 -1.3 -1 -4.1 -1 -6.3 l0 -4 7.8 -3.5 c43.8 -20.3 44 -20.3 48.4 -11.4 1.5 3 2.9 5.9 3.1 6.4 0.1 0.5 5.8 -1.7 12.4 -4.8 8.9 -4.1 13.4 -5.6 16.5 -5.6 l4.4 0 3.4 7 c2.5 5.2 3.8 6.9 5 6.5 0.8 -0.4 6.9 -3 13.4 -5.8 11.4 -5 12 -5.4 13.8 -9.5 l1.9 -4.3 -7.7 -16.5 c-4.3 -9.1 -8.1 -16.7 -8.6 -17 -0.4 -0.3 -2.9 0.4 -5.4 1.5 -2.6 1.2 -6.1 2.1 -8 2.1 -3.2 0 -3.4 -0.3 -8 -9.7 -2.6 -5.4 -5.7 -12.1 -7 -15 l-2.3 -5.2 -5.3 2.4 c-2.9 1.4 -6.7 2.5 -8.5 2.5 -3.1 0 -3.3 -0.3 -10.3 -14.7 -3.9 -8.1 -7.3 -14.9 -7.4 -15.1 -0.2 -0.1 -2.4 0.7 -5 1.8 -2.6 1.1 -6.5 2 -8.5 2 l-3.8 0 -6.3 -13.7 c-3.4 -7.6 -6.6 -14.2 -7 -14.6 -0.4 -0.5 -3 0.1 -5.8 1.3 -2.7 1.2 -6.4 2 -8.3 1.8 -3.1 -0.3 -3.5 -0.8 -9.6 -13.8 -3.4 -7.4 -6.4 -13.9 -6.6 -14.4 -0.2 -0.5 -2.5 0.1 -5.1 1.3 -2.7 1.1 -6.5 2.1 -8.5 2.1 l-3.6 -0.1 -5.8 -12.7 c-7.8 -17.2 -6.6 -15.9 -12.4 -13.5 -10.6 4.5 -19.3 8.8 -19.3 9.5 0 0.5 2.5 6.4 5.5 13.1 4.1 8.9 5.5 13.2 5.3 15.7 -0.3 3.2 -0.8 3.7 -6.5 6.5 -3.5 1.7 -6.3 3.4 -6.3 3.8 0 0.4 2.5 6.2 5.5 12.8 3.9 8.6 5.5 13.2 5.5 16.3 0 4.2 -0.1 4.3 -6 7.1 -3.3 1.6 -6 3 -6 3.2 0 0.2 2.7 6.4 6.1 13.7 7.7 17.1 7.7 18 -1.3 22.4 l-6.7 3.2 3.3 7.3 c1.9 3.9 4.5 9.6 6 12.6 1.6 3.3 2.6 7.2 2.6 9.8 l0 4.4 -6 2.6 c-3.3 1.4 -6 3 -6 3.6 0 0.6 2.5 6.5 5.6 13.2 4.3 9.5 5.5 13.1 5.2 16.1 -0.3 3.7 -0.6 4.1 -6.5 7 -3.5 1.7 -6.6 3.3 -6.9 3.7 -0.6 0.5 16.4 38.7 17.2 38.7 0.2 0 4.5 -1.8 9.6 -4.1z"/>
 </g>
 <g fill="#eeeeee">
  <path d="M152.2 324.8 c-0.5 -0.7 -4.2 -8.4 -8.2 -17 -5.8 -12.5 -7.7 -15.8 -9.2 -15.8 -3.4 0 -1.4 -2 5.2 -5.3 5.7 -2.8 6.5 -3.5 6.5 -6 0 -1.9 0.7 -3.3 2.1 -4 2.1 -1.2 2 -1.4 -3.4 -12.9 -4.7 -10.1 -5.8 -11.8 -7.9 -11.8 -4.2 0 -2.4 -2.1 4.3 -5.1 6.2 -2.8 6.6 -3.2 6.1 -5.8 -0.5 -2.3 -0.1 -3 1.8 -3.9 l2.5 -1.1 -5.5 -11.7 c-3 -6.4 -5.5 -11.8 -5.5 -12 0 -0.2 -1.1 -0.4 -2.5 -0.4 -4.1 0 -2.8 -1.9 3.2 -4.5 7.7 -3.5 8.5 -4.2 7.1 -6.8 -0.7 -1.4 -0.7 -2.2 -0.1 -2.4 0.6 -0.2 1.7 -0.9 2.6 -1.6 1.4 -1.1 0.9 -2.6 -4.3 -14.1 -3.3 -7.1 -5.8 -13.2 -5.5 -13.6 0.2 -0.3 2.3 -1.5 4.5 -2.5 3.7 -1.7 4.1 -2.2 3.6 -4.7 -0.4 -2.2 -0.1 -3 1.9 -4 l2.4 -1.3 -6 -13 c-3.2 -7.1 -5.9 -13.2 -5.9 -13.5 0 -0.3 2.1 -1.6 4.8 -3 4.6 -2.5 5.2 -3.6 3.7 -7.2 -0.5 -1.4 -0.2 -1.8 1.3 -1.8 1.2 0 2.4 -0.5 2.7 -1 0.4 -0.6 -2 -6.7 -5.1 -13.6 -5.5 -12 -5.7 -12.7 -3.8 -13.8 3.5 -2 22.7 -10.6 23.9 -10.6 1.1 0 14.5 26.9 14.5 29 0 1.5 1.3 1.2 8.6 -2 5.5 -2.5 7 -2.8 7.9 -1.8 0.7 0.7 4 7.4 7.4 14.8 3.4 7.4 6.6 13.8 7 14.3 0.4 0.4 4 -0.7 8 -2.5 8.6 -3.8 6.7 -5.4 15.9 14.1 3.4 7.4 6.4 13.7 6.7 13.9 0.3 0.3 3.9 -0.9 8.1 -2.7 4.2 -1.8 7.8 -3.1 7.9 -2.9 0.2 0.2 3.8 7.4 8 16 8.5 17.6 6.8 16.4 16.5 11.9 2.5 -1.1 5.2 -2.1 6 -2.1 1 0 3.8 4.9 7.9 13.9 3.6 7.6 7 14.6 7.6 15.5 1.1 1.4 1.9 1.2 8.4 -1.5 3.9 -1.6 7.5 -2.8 7.9 -2.5 0.5 0.3 4.8 8.9 9.6 19.1 9 19.2 9.9 22.8 5.8 24.2 -0.9 0.3 -7.3 3 -14.1 5.9 -11.9 5.2 -16.2 6.2 -18.7 4.6 -0.7 -0.4 -2.7 -4 -4.5 -8 -1.7 -4 -3.7 -7.1 -4.3 -6.8 -0.6 0.2 -6.2 2.7 -12.3 5.5 -8.2 3.7 -12.5 5.1 -15.8 5.1 l-4.4 0 -3.5 -7.5 -3.5 -7.5 -4.3 1.9 c-2.4 1 -11.9 5.4 -21.3 9.6 -9.3 4.3 -18.5 8.4 -20.3 9.1 -2.9 1.3 -3.1 1.6 -2 3.5 3.7 6.1 3.7 6.2 2 7.5 -1.4 1 -1.4 1.6 -0.4 3.8 0.7 1.5 1.2 4.1 1.2 5.7 0 2.9 -0.6 3.3 -10.6 8 -5.9 2.7 -12.2 5.6 -14 6.4 -3.2 1.3 -3.3 1.6 -2.3 4.2 0.8 2.2 0.7 3 -0.6 3.9 -1.5 1.1 -1.5 1.5 -0.1 4.3 3.4 6.5 2.8 7.2 -11.1 13.4 -13 5.8 -19.9 7.2 -22.1 4.5z"/>
 </g>
 <g fill="#c1c1c1">
  <path d="M141.7 316.3 c-12.2 -26.7 -11.7 -25 -7.1 -26.9 2 -0.8 4 -1.2 4.5 -0.7 0.5 0.5 4.2 8 8.3 16.8 4 8.8 8 16.4 8.9 16.9 1.1 0.7 5.2 -0.7 15.3 -5.2 7.7 -3.4 14.2 -6.2 14.7 -6.2 1 0 0.9 3.7 -0.4 8.1 -1 3.1 -2 4.1 -5.8 5.7 -2.5 1.1 -9.8 4.3 -16.1 7.1 -6.2 2.8 -11.7 5.1 -12.1 5.1 -0.4 0 -4.9 -9.3 -10.2 -20.7z"/>
  <path d="M181.9 299.1 c-0.9 -2.1 -1.4 -4.3 -1 -4.8 0.8 -1.3 29 -14.3 30.9 -14.3 1.1 0 1.3 0.9 0.9 3.3 -1.1 6.9 -2.4 8.6 -8.4 11.3 -8.5 3.8 -19.5 8.4 -20.2 8.4 -0.3 0 -1.3 -1.8 -2.2 -3.9z"/>
  <path d="M146.8 281.3 c-0.3 -1 -3.5 -8.2 -7.1 -16.1 l-6.6 -14.2 4.1 -2 c2.3 -1.1 4.3 -1.9 4.4 -1.7 1 1 13.4 28.1 13.4 29.3 0 0.7 -1.5 2.1 -3.2 3 -1.8 0.9 -3.6 2.1 -3.9 2.6 -0.3 0.5 -0.9 0.1 -1.1 -0.9z"/>
  <path d="M210 270.9 c0 -0.5 -1.1 -2.5 -2.5 -4.5 -4.8 -7 -5.3 -6.6 23.6 -19.6 14.4 -6.5 26.9 -11.8 27.9 -11.8 1.2 0 2.8 2.4 5.4 8 2.5 5.6 4.2 8 5.4 8 0.9 -0.1 8 -2.9 15.7 -6.4 7.7 -3.5 14.4 -6.1 14.9 -5.9 0.5 0.3 2.4 4 4.4 8.2 1.9 4.2 3.9 7.9 4.5 8.2 0.5 0.4 7.5 -2.2 15.5 -5.7 8 -3.5 14.9 -6.4 15.4 -6.4 1.3 0 0.9 3.2 -1.1 7.5 -1.7 3.8 -2.6 4.3 -15.8 10.1 -7.8 3.4 -14.9 6.5 -16 6.8 -1.6 0.5 -2.5 -0.7 -5.8 -7.4 -2.1 -4.4 -4.5 -8 -5.3 -8 -0.7 0 -7.1 2.7 -14.1 5.9 -7.1 3.3 -13.7 6.1 -14.7 6.3 -1.5 0.2 -2.6 -1.1 -4.9 -5.9 -1.6 -3.4 -3.5 -6.7 -4.1 -7.3 -1 -1 -17.4 5.8 -40.1 16.7 -4.6 2.2 -8.3 3.6 -8.3 3.2z"/>
  <path d="M147.1 239.8 c-0.7 -1.6 -3.9 -8.6 -7.2 -15.6 -3.2 -6.9 -5.5 -12.9 -5.1 -13.3 0.4 -0.4 2.3 -1.4 4.3 -2.2 l3.7 -1.5 6.6 14.1 c3.7 7.8 6.6 14.9 6.6 15.7 0 0.8 -1.7 2.4 -3.8 3.6 l-3.9 2.1 -1.2 -2.9z"/>
  <path d="M142.6 187.2 c-3.6 -8.1 -6.6 -15 -6.6 -15.3 0 -0.8 7.9 -4.3 8.5 -3.8 1.5 1.6 13.4 29.4 12.8 30 -0.5 0.4 -2.4 1.5 -4.4 2.3 l-3.6 1.5 -6.7 -14.7z"/>
  <path d="M150 163.3 c0 -0.7 -2.9 -7.6 -6.5 -15.4 -3.6 -7.8 -6.5 -14.7 -6.5 -15.4 0 -1.5 7.2 -4.6 8.3 -3.6 1.2 1.2 12.7 27 12.7 28.6 0 0.8 -1.5 2.2 -3.2 3.1 -1.8 0.9 -3.6 2.2 -4 2.8 -0.6 0.8 -0.8 0.7 -0.8 -0.1z"/>
  <path d="M150.6 119.8 c-1.9 -3.1 -11.6 -25.2 -11.6 -26.5 0 -1.3 7.2 -4.4 8.2 -3.5 0.9 0.9 12.8 27.1 12.8 28.2 0 1 -5.2 4 -6.9 4 -0.6 0 -1.7 -1 -2.5 -2.2z"/>
 </g>
</svg>